<mxfile host="65bd71144e">
    <diagram id="nK5diLz6Ndpcmfll9IBE" name="Brain Storming">
        <mxGraphModel dx="485" dy="407" grid="1" gridSize="10" guides="1" tooltips="1" connect="1" arrows="1" fold="1" page="1" pageScale="1" pageWidth="1100" pageHeight="850" math="0" shadow="0">
            <root>
                <mxCell id="0"/>
                <mxCell id="1" parent="0"/>
            </root>
        </mxGraphModel>
    </diagram>
    <diagram id="iLqtCOQm-QGOApWhFrFc" name="WBS">
        <mxGraphModel dx="509" dy="427" grid="1" gridSize="10" guides="1" tooltips="1" connect="1" arrows="1" fold="1" page="1" pageScale="1" pageWidth="1169" pageHeight="827" math="0" shadow="0">
            <root>
                <mxCell id="0"/>
                <mxCell id="1" parent="0"/>
                <mxCell id="4" style="edgeStyle=none;html=1;entryX=0;entryY=0.5;entryDx=0;entryDy=0;" parent="1" source="2" target="3" edge="1">
                    <mxGeometry relative="1" as="geometry"/>
                </mxCell>
                <mxCell id="5" value="10 Days" style="edgeLabel;html=1;align=center;verticalAlign=middle;resizable=0;points=[];fontSize=17;" parent="4" vertex="1" connectable="0">
                    <mxGeometry x="0.0044" y="-2" relative="1" as="geometry">
                        <mxPoint y="-4" as="offset"/>
                    </mxGeometry>
                </mxCell>
                <mxCell id="2" value="Start" style="rounded=0;whiteSpace=wrap;html=1;fontSize=20;fillColor=#6a00ff;strokeColor=#3700CC;fontColor=#ffffff;" parent="1" vertex="1">
                    <mxGeometry x="400" y="360" width="120" height="60" as="geometry"/>
                </mxCell>
                <mxCell id="3" value="End" style="rounded=0;whiteSpace=wrap;html=1;fontSize=20;fillColor=#6a00ff;strokeColor=#3700CC;fontColor=#ffffff;" parent="1" vertex="1">
                    <mxGeometry x="745" y="360" width="120" height="60" as="geometry"/>
                </mxCell>
            </root>
        </mxGraphModel>
    </diagram>
    <diagram id="nAH0VXtvBLoDWTsD6OKM" name="FlowChart &amp; UseCase">
        <mxGraphModel dx="509" dy="427" grid="1" gridSize="10" guides="1" tooltips="1" connect="1" arrows="1" fold="1" page="1" pageScale="1" pageWidth="1100" pageHeight="850" math="0" shadow="0">
            <root>
                <mxCell id="0"/>
                <mxCell id="1" parent="0"/>
                <mxCell id="mfjPzCA77ToaF2GA-g40-22" value="SubjectName" style="shape=rect;html=1;verticalAlign=top;fontStyle=1;whiteSpace=wrap;align=center;" parent="1" vertex="1">
                    <mxGeometry x="170" y="30" width="430" height="800" as="geometry"/>
                </mxCell>
                <mxCell id="mfjPzCA77ToaF2GA-g40-23" value="ActorName" style="shape=umlActor;html=1;verticalLabelPosition=bottom;verticalAlign=top;align=center;" parent="1" vertex="1">
                    <mxGeometry x="30" y="250" width="30" height="60" as="geometry"/>
                </mxCell>
                <mxCell id="mfjPzCA77ToaF2GA-g40-24" value="UseCaseName" style="shape=ellipse;html=1;strokeWidth=3;fontStyle=1;whiteSpace=wrap;align=center;perimeter=ellipsePerimeter;" parent="1" vertex="1">
                    <mxGeometry x="320" y="160" width="120" height="60" as="geometry"/>
                </mxCell>
                <mxCell id="mfjPzCA77ToaF2GA-g40-25" value="&amp;lt;&amp;lt;include&amp;gt;&amp;gt;" style="edgeStyle=none;html=1;endArrow=open;verticalAlign=bottom;dashed=1;labelBackgroundColor=none;" parent="1" edge="1">
                    <mxGeometry width="160" relative="1" as="geometry">
                        <mxPoint x="310" y="310" as="sourcePoint"/>
                        <mxPoint x="470" y="310" as="targetPoint"/>
                    </mxGeometry>
                </mxCell>
                <mxCell id="mfjPzCA77ToaF2GA-g40-26" value="&amp;lt;&amp;lt;extend&amp;gt;&amp;gt;" style="edgeStyle=none;html=1;startArrow=open;endArrow=none;startSize=12;verticalAlign=bottom;dashed=1;labelBackgroundColor=none;" parent="1" edge="1">
                    <mxGeometry width="160" relative="1" as="geometry">
                        <mxPoint x="350" y="430" as="sourcePoint"/>
                        <mxPoint x="510" y="430" as="targetPoint"/>
                    </mxGeometry>
                </mxCell>
                <mxCell id="mfjPzCA77ToaF2GA-g40-27" value="" style="edgeStyle=none;html=1;endArrow=block;endFill=0;endSize=12;verticalAlign=bottom;" parent="1" edge="1">
                    <mxGeometry width="160" relative="1" as="geometry">
                        <mxPoint x="360" y="540" as="sourcePoint"/>
                        <mxPoint x="520" y="540" as="targetPoint"/>
                    </mxGeometry>
                </mxCell>
                <mxCell id="mfjPzCA77ToaF2GA-g40-28" value="" style="html=1;dashed=0;whiteSpace=wrap;" parent="1" vertex="1">
                    <mxGeometry x="820" y="80" width="100" height="50" as="geometry"/>
                </mxCell>
            </root>
        </mxGraphModel>
    </diagram>
    <diagram id="qrVsZMsTvgrq5S7VseXE" name="Sequence Diagram">
        <mxGraphModel dx="509" dy="427" grid="1" gridSize="10" guides="1" tooltips="1" connect="1" arrows="1" fold="1" page="1" pageScale="1" pageWidth="850" pageHeight="1100" math="0" shadow="0">
            <root>
                <mxCell id="0"/>
                <mxCell id="1" parent="0"/>
            </root>
        </mxGraphModel>
    </diagram>
</mxfile>